<svg width="34" height="39" viewBox="0 0 34 39" fill="none" xmlns="http://www.w3.org/2000/svg">
<circle cx="17" cy="22" r="17" fill="#EA42AD"/>
<path d="M13.292 17.868C13.8333 17.1213 14.5707 16.5147 15.504 16.048C16.456 15.5627 17.5107 15.32 18.668 15.32C20.0307 15.32 21.2627 15.6467 22.364 16.3C23.4653 16.9533 24.3333 17.8867 24.968 19.1C25.6027 20.2947 25.92 21.6667 25.92 23.216C25.92 24.7653 25.6027 26.156 24.968 27.388C24.3333 28.6013 23.456 29.5533 22.336 30.244C21.2347 30.916 20.012 31.252 18.668 31.252C17.4733 31.252 16.4093 31.0187 15.476 30.552C14.5613 30.0853 13.8333 29.488 13.292 28.76V31H10.1V10.28H13.292V17.868ZM22.672 23.216C22.672 22.152 22.448 21.2373 22 20.472C21.5707 19.688 20.992 19.1 20.264 18.708C19.5547 18.2973 18.7893 18.092 17.968 18.092C17.1653 18.092 16.4 18.2973 15.672 18.708C14.9627 19.1187 14.384 19.716 13.936 20.5C13.5067 21.284 13.292 22.208 13.292 23.272C13.292 24.336 13.5067 25.2693 13.936 26.072C14.384 26.856 14.9627 27.4533 15.672 27.864C16.4 28.2747 17.1653 28.48 17.968 28.48C18.7893 28.48 19.5547 28.2747 20.264 27.864C20.992 27.4347 21.5707 26.8187 22 26.016C22.448 25.2133 22.672 24.28 22.672 23.216Z" fill="white"/>
<line x1="7" y1="22" x2="17" y2="22" stroke="white" stroke-width="2"/>
<line x1="7" y1="26" x2="17" y2="26" stroke="white" stroke-width="2"/>
</svg>
